<svg id="Capa_1" enable-background="new 0 0 512 512" height="512" viewBox="0 0 512 512" width="512" xmlns="http://www.w3.org/2000/svg"><g><path d="m490.818 113.54c-20.05-11.58-45.79-4.68-57.37 15.37l-37.26 64.55v-53.46c0-5.52-4.48-10-10-10-5.53 0-10 4.48-10 10v88 .09l-109.83 190.23c-.7 1.2-1.13 2.54-1.28 3.93l-7.52 69.75h-237.37v-472h356v30c0 5.52 4.47 10 10 10 5.52 0 10-4.48 10-10v-40c0-5.52-4.48-10-10-10h-376c-5.53 0-10 4.48-10 10v492c0 5.52 4.47 10 10 10h376c5.52 0 10-4.48 10-10v-140.55l110.01-190.54c11.57-20.05 4.68-45.79-15.38-57.37zm-207.5 326.12 28.83 16.64-33.24 24.28zm92.87 52.34h-79l39.16-28.61c1.12-.82 2.06-1.87 2.76-3.07l37.08-64.22zm-49.4-50.34-38.11-22 146.37-253.51 38.1 22zm162.08-280.75-5.72 9.92-38.1-22 5.72-9.92c6.06-10.5 19.55-14.11 30.05-8.05 10.51 6.07 14.12 19.55 8.05 30.05z"/><path d="m386.188 85c-2.64 0-5.21 1.07-7.07 2.93s-2.93 4.44-2.93 7.07c0 2.64 1.07 5.21 2.93 7.07s4.44 2.93 7.07 2.93 5.21-1.07 7.07-2.93 2.93-4.44 2.93-7.07-1.07-5.21-2.93-7.07-4.43-2.93-7.07-2.93z"/><path d="m299.188 106h-202c-5.53 0-10 4.48-10 10s4.47 10 10 10h202c5.52 0 10-4.48 10-10s-4.48-10-10-10z"/><path d="m299.188 162h-202c-5.53 0-10 4.48-10 10s4.47 10 10 10h202c5.52 0 10-4.48 10-10s-4.48-10-10-10z"/><path d="m299.188 218h-74.25c-5.53 0-10 4.48-10 10s4.47 10 10 10h74.25c5.52 0 10-4.48 10-10s-4.48-10-10-10z"/><path d="m309.188 284c0-5.52-4.48-10-10-10h-202c-5.53 0-10 4.48-10 10s4.47 10 10 10h202c5.52 0 10-4.48 10-10z"/><path d="m266.188 340c0-5.52-4.48-10-10-10h-62.5c-5.53 0-10 4.48-10 10s4.47 10 10 10h62.5c5.52 0 10-4.48 10-10z"/><path d="m97.188 406h88c5.52 0 10-4.48 10-10s-4.48-10-10-10h-88c-5.53 0-10 4.48-10 10s4.47 10 10 10z"/><path d="m97.188 238h66.66c5.53 0 10-4.48 10-10s-4.47-10-10-10h-66.66c-5.53 0-10 4.48-10 10s4.47 10 10 10z"/><path d="m97.188 350h51.5c5.52 0 10-4.48 10-10s-4.48-10-10-10h-51.5c-5.53 0-10 4.48-10 10s4.47 10 10 10z"/></g></svg>