<svg id="Capa_1" enable-background="new 0 0 512 512" height="512" viewBox="0 0 512 512" width="512" xmlns="http://www.w3.org/2000/svg"><g><path d="m324.466 321.056 45.644-45.644c62.92-62.92 62.92-165.3 0-228.221-31.46-31.461-72.785-47.191-114.11-47.191l-20 51.667 20 45.114c16.53 0 33.06 6.292 45.644 18.876 12.192 12.192 18.907 28.402 18.907 45.644s-6.715 33.453-18.907 45.645l-45.644 45.643-20 68.466 20 68.466 122.478 122.479 68.466-68.466z" fill="#f37"/><path d="m256 96.781v-96.781c-41.325 0-82.65 15.73-114.11 47.191-62.92 62.921-62.92 165.301 0 228.221l45.644 45.644-122.478 122.478 68.466 68.466 122.478-122.478v-136.933l-45.644-45.644c-12.192-12.192-18.907-28.402-18.907-45.645 0-17.242 6.715-33.452 18.907-45.644 12.584-12.583 29.114-18.875 45.644-18.875z" fill="#ff8080"/></g></svg>